<svg xmlns="http://www.w3.org/2000/svg" version="1.1" xmlns:xlink="http://www.w3.org/1999/xlink" xmlns:svgjs="http://svgjs.dev/svgjs" viewBox="0 0 1920 1080" style="overflow: hidden; height: 85vh;" class="overflow-hidden rounded-md drop-shadow-lg transition duration-300"><rect width="1920" height="1080" fill="#2538c7"/><g clip-path="url(&quot;#SvgjsClipPath1387&quot;)"><g transform="matrix(-0.25869371249544504,-1.1205255745030203,1.1205255745030203,-0.25869371249544504,548.3079177744535,1706.4773047967599)"><path d="M0,-1080C9.426003884919416,-982.3461624320461,70.56352118767876,-706.2694500725233,56.55602330951649,-494.0769745922767C42.54852543135422,-281.8844991120301,-67.30689261575101,-36.955547655903416,-84.04498726897361,193.15485288147985C-100.78308192219622,423.26525341886315,-48.11880318561009,665.2294113073291,-43.872544609819094,886.5854286320229C-39.6262860340281,1107.9414459567167,-65.8795265825308,1309.05519493498,-58.56743581422762,1521.2909568296427C-51.25534504592444,1733.5267187243055,-9.761239302371271,2053.5484928049405,0,2160L 1920 2160 L 1920 -1080 Z" fill="url(&quot;#SvgjsLinearGradient1382&quot;)"/><path d="M384,-1080C381.4679050940129,-989.6718492785865,360.1122573995361,-724.291730330224,368.8074305640773,-538.0310956715192C377.50260372861857,-351.7704610128144,442.01343267465137,-140.965550624922,436.17103898724747,37.56380795222893C430.3286452998436,216.09316652937986,347.0675984769958,368.2341655926771,333.7530684396539,533.1450557913865C320.43853840231196,698.055945990096,340.2896894802524,845.3064092370621,356.28385876319595,1027.0291491444857C372.2780280461395,1208.7518890519093,425.09872726451465,1434.6530200933425,429.7180841373153,1623.4814952359284C434.337441010116,1812.3099703785142,391.6196806895525,2070.580249205988,384,2160L 1920 2160 L 1920 -1080 Z" fill="url(&quot;#SvgjsLinearGradient1383&quot;)"/><path d="M768,-1080C761.1667156889426,-996.2076431858306,731.5625445377179,-722.7442696896106,727.0002941336556,-577.2458591149839C722.4380437295933,-431.74744854035714,727.7064921578137,-360.3946346962571,740.6264975756261,-207.00953655223952C753.5465029934385,-53.62443840822192,787.1724471309243,180.93491762816353,804.5203266405298,343.06472974912174C821.8682061501353,505.19454187007995,845.0570303197441,626.5870136571464,844.713774633259,765.7693361735097C844.370518946774,904.951658689873,806.2785167381016,1009.7561174367328,802.4607925216197,1178.1586648473021C798.6430683051378,1346.5612122578714,827.5508947546377,1612.544398111476,821.8074293343677,1776.1846206369257C816.0639639140977,1939.8248431623754,776.9679048890613,2096.0307701061543,768,2160L 1920 2160 L 1920 -1080 Z" fill="url(&quot;#SvgjsLinearGradient1384&quot;)"/><path d="M1152,-1080C1165.9719110940034,-981.946379918875,1226.2659192476654,-668.4076444010184,1235.831466564021,-491.6782795132497C1245.3970138803766,-314.94891462548105,1225.5915938173307,-204.02399291675206,1209.3932838981334,-19.623810673388135C1193.194973978936,164.7763715699758,1139.9442452873388,430.6371838431726,1138.6416070488374,614.7228139469339C1137.338968810336,798.8084440506952,1196.5822194629243,930.434056657352,1201.577454467125,1084.88996994918C1206.572689471326,1239.3458832410083,1176.875926151897,1362.2732886894328,1168.6130170740428,1541.4582936979027C1160.3501079961886,1720.6432987063727,1154.7688361790072,2056.909715616317,1152,2160L 1920 2160 L 1920 -1080 Z" fill="url(&quot;#SvgjsLinearGradient1385&quot;)"/><path d="M1536,-1080C1536.7311822632241,-941.3724411325188,1546.2593687604312,-510.3616103217577,1540.3870935793445,-248.23464679511324C1534.5148183982578,13.892316731531253,1487.2870800241099,239.6604312952911,1500.7663489134802,492.76178115986716C1514.2456178028506,745.8631310244432,1615.3904317344793,992.5004159189875,1621.262706915566,1270.373452392343C1627.1349820966527,1548.2464888656987,1550.2104511525943,2011.728908732057,1536,2160L 1920 2160 L 1920 -1080 Z" fill="url(&quot;#SvgjsLinearGradient1386&quot;)"/></g></g><defs><linearGradient x1="0.1" y1="0" x2="0" y2="1" id="SvgjsLinearGradient1382"><stop stop-color="#2538c7" offset="0"/><stop stop-color="#2553c7" offset="0"/></linearGradient><linearGradient x1="0.1" y1="0" x2="0" y2="1" id="SvgjsLinearGradient1383"><stop stop-color="#2132b0" offset="0"/><stop stop-color="#214ab0" offset="0.2"/></linearGradient><linearGradient x1="0.1" y1="0" x2="0" y2="1" id="SvgjsLinearGradient1384"><stop stop-color="#1d2b9a" offset="0"/><stop stop-color="#1d409a" offset="0.4"/></linearGradient><linearGradient x1="0.1" y1="0" x2="0" y2="1" id="SvgjsLinearGradient1385"><stop stop-color="#182584" offset="0"/><stop stop-color="#183784" offset="0.6"/></linearGradient><linearGradient x1="0.1" y1="0" x2="0" y2="1" id="SvgjsLinearGradient1386"><stop stop-color="#141f6d" offset="0"/><stop stop-color="#142e6d" offset="0.8"/></linearGradient><clipPath id="SvgjsClipPath1387"><rect width="1920" height="1080"/></clipPath></defs></svg>